<svg xmlns="http://www.w3.org/2000/svg" xmlns:xlink="http://www.w3.org/1999/xlink" width="323.454" height="131.864" viewBox="0 0 323.454 131.864">
  <defs>
    <clipPath id="clip-path">
      <rect id="Rectangle_7" data-name="Rectangle 7" width="323.454" height="131.864" fill="none"/>
    </clipPath>
  </defs>
  <g id="Groupe_3" data-name="Groupe 3" transform="translate(0 0)">
    <path id="Tracé_1" data-name="Tracé 1" d="M12.595,63.908v8.047H2.742V63.908H0V82.718H2.742V74.643h9.853v8.075h2.738V63.908Z" transform="translate(0 21.025)" fill="#161615"/>
    <g id="Groupe_2" data-name="Groupe 2" transform="translate(0 0)">
      <g id="Groupe_1" data-name="Groupe 1" clip-path="url(#clip-path)">
        <path id="Tracé_2" data-name="Tracé 2" d="M29.478,74.626c0,4.149-2.751,5.627-5.324,5.627s-5.3-1.478-5.3-5.627V63.908H16.12V74.573c0,4.924,3.3,8.363,8.034,8.363,4.748,0,8.066-3.439,8.066-8.363V63.908H29.478Z" transform="translate(5.303 21.026)" fill="#161615"/>
        <path id="Tracé_3" data-name="Tracé 3" d="M42.024,72.277l-6.318-8.369H32.813V82.719h2.742V68.358l6.206,7.849.267.344,6.363-8.18V82.719h2.742V63.908h-2.9Z" transform="translate(10.795 21.026)" fill="#161615"/>
        <path id="Tracé_4" data-name="Tracé 4" d="M57.588,63.908l-7.78,18.333-.2.477h3.014l2.219-5.257h8.525l2.215,5.257H68.6L60.615,63.908Zm4.7,10.979H55.92L59.1,67.274Z" transform="translate(16.32 21.026)" fill="#161615"/>
        <path id="Tracé_5" data-name="Tracé 5" d="M80.484,78.454l-10.576-14.4-.1-.141h-2.9V82.719h2.736V68.12l10.684,14.6h2.9V63.908H80.484Z" transform="translate(22.012 21.026)" fill="#161615"/>
        <path id="Tracé_6" data-name="Tracé 6" d="M83.758,70.275l.031.315h2.02l.585-6.682H83.206Z" transform="translate(27.374 21.026)" fill="#161615"/>
        <path id="Tracé_7" data-name="Tracé 7" d="M96.875,71.894c-2.7-.645-5.025-1.2-5.025-2.824,0-1.757,1.587-2.724,4.476-2.724,2.778,0,4.5,1.076,4.726,2.956l.036.3h2.778l-.021-.363c-.166-2.658-2.221-5.5-7.518-5.5-4.485,0-7.159,2-7.159,5.353,0,3.637,3.851,4.572,7.244,5.394,2.768.668,5.159,1.249,5.159,3.01,0,2.489-2.908,2.86-4.642,2.86-1.6,0-5.328-.328-5.487-3.37l-.019-.326H88.586l.032.372c.231,2.715,1.837,5.954,8.172,5.954,4.709,0,7.517-2.083,7.517-5.571,0-3.752-3.95-4.694-7.432-5.526" transform="translate(29.144 20.971)" fill="#161615"/>
        <path id="Tracé_8" data-name="Tracé 8" d="M124.725,76.922h2.162a8.323,8.323,0,0,1-8.212,5.64c-5.449,0-8.762-4.133-8.762-9.28S113.226,64,118.675,64a8.319,8.319,0,0,1,8.212,5.64h-2.162A5.92,5.92,0,0,0,118.84,66c-4.41,0-6.871,3.2-6.871,7.283s2.461,7.283,6.871,7.283a5.92,5.92,0,0,0,5.885-3.643" transform="translate(36.161 21.057)" fill="#161615"/>
        <path id="Tracé_9" data-name="Tracé 9" d="M144.35,73.282a9.2,9.2,0,1,1-9.2-9.28,8.97,8.97,0,0,1,9.2,9.28m-2.056,0A6.905,6.905,0,0,0,135.147,66c-4.4,0-7.142,3.2-7.142,7.283s2.738,7.283,7.142,7.283a6.905,6.905,0,0,0,7.147-7.283" transform="translate(41.436 21.057)" fill="#161615"/>
        <path id="Tracé_10" data-name="Tracé 10" d="M159.82,64.167V82.29h-2.38l-11.2-15.3v15.3h-2.056V64.167h2.382l11.2,15.248V64.167Z" transform="translate(47.437 21.111)" fill="#161615"/>
        <path id="Tracé_11" data-name="Tracé 11" d="M176.85,64.167V82.29h-2.386l-11.2-15.3v15.3h-2.055V64.167H163.6l11.194,15.248V64.167Z" transform="translate(53.039 21.111)" fill="#161615"/>
        <path id="Tracé_12" data-name="Tracé 12" d="M180.292,66.137v6.077h10.076v2H180.292V80.32h11.28v1.97H178.236V64.166h13.336v1.971Z" transform="translate(58.639 21.111)" fill="#161615"/>
        <path id="Tracé_13" data-name="Tracé 13" d="M200.673,72.927,207.9,82.29h-2.6l-5.885-7.776-5.858,7.776h-2.6l7.227-9.363-6.737-8.761h2.6l5.368,7.118,5.394-7.118h2.6Z" transform="translate(62.824 21.111)" fill="#161615"/>
        <rect id="Rectangle_6" data-name="Rectangle 6" width="2.056" height="18.123" transform="translate(275.418 85.278)" fill="#161615"/>
        <path id="Tracé_14" data-name="Tracé 14" d="M231.574,73.282a9.2,9.2,0,1,1-9.2-9.28,8.969,8.969,0,0,1,9.2,9.28m-2.056,0c0-4.08-2.738-7.283-7.142-7.283a6.905,6.905,0,0,0-7.147,7.283,6.905,6.905,0,0,0,7.147,7.283c4.4,0,7.142-3.2,7.142-7.283" transform="translate(70.132 21.057)" fill="#161615"/>
        <path id="Tracé_15" data-name="Tracé 15" d="M247.053,64.167V82.29h-2.386l-11.2-15.3v15.3h-2.055V64.167H233.8L245,79.414V64.167Z" transform="translate(76.135 21.111)" fill="#161615"/>
        <path id="Tracé_16" data-name="Tracé 16" d="M11.811,93.859c0,3.4-2.283,6.128-5.752,6.128A4.865,4.865,0,0,1,1.811,97.9v1.9H.027V83.17H1.811v6.674a4.884,4.884,0,0,1,4.249-2.113c3.469,0,5.752,2.731,5.752,6.128m-1.784,0a4.2,4.2,0,0,0-4.2-4.515c-2.634,0-4.111,2.067-4.111,4.515s1.477,4.515,4.111,4.515a4.2,4.2,0,0,0,4.2-4.515" transform="translate(0.009 27.363)" fill="#8c8b8b"/>
        <path id="Tracé_17" data-name="Tracé 17" d="M19.262,98.621V96.769a4.639,4.639,0,0,1-3.946,2.043c-2.448,0-4.752-1.782-4.752-5.155V86.744h1.784V93.61A3.292,3.292,0,0,0,15.673,97.2a3.519,3.519,0,0,0,3.59-3.611V86.744h1.78V98.621Z" transform="translate(3.475 28.539)" fill="#8c8b8b"/>
        <path id="Tracé_18" data-name="Tracé 18" d="M27.055,86.6v1.781h-.214c-2.662,0-4.275,2.445-4.275,5.061v5.226h-1.78V86.792h1.78v2.922A4.516,4.516,0,0,1,26.939,86.6Z" transform="translate(6.838 28.492)" fill="#8c8b8b"/>
        <path id="Tracé_19" data-name="Tracé 19" d="M35.657,95.249h1.948a5.422,5.422,0,0,1-5.417,3.61,5.871,5.871,0,0,1-6.011-6.128A5.778,5.778,0,0,1,32.071,86.6c3.635,0,5.89,2.731,5.89,6.129v.712H28.01a4.128,4.128,0,0,0,4.2,3.8,3.711,3.711,0,0,0,3.442-1.995M28.032,91.78h8.079a4.071,4.071,0,0,0-8.079,0" transform="translate(8.612 28.492)" fill="#8c8b8b"/>
        <path id="Tracé_20" data-name="Tracé 20" d="M46.15,88.715V86.791h1.778V98.669H46.15v-1.9A4.881,4.881,0,0,1,41.9,98.858c-3.469,0-5.752-2.731-5.752-6.128S38.427,86.6,41.9,86.6a4.9,4.9,0,0,1,4.254,2.113m.093,4.015c0-2.448-1.471-4.515-4.111-4.515a4.526,4.526,0,0,0,0,9.029c2.639,0,4.111-2.067,4.111-4.515" transform="translate(11.891 28.492)" fill="#8c8b8b"/>
        <path id="Tracé_21" data-name="Tracé 21" d="M55.954,98.621V96.769a4.639,4.639,0,0,1-3.946,2.043c-2.448,0-4.752-1.782-4.752-5.155V86.744H49.04V93.61A3.292,3.292,0,0,0,52.365,97.2a3.519,3.519,0,0,0,3.59-3.611V86.744h1.78V98.621Z" transform="translate(15.547 28.539)" fill="#8c8b8b"/>
        <path id="Tracé_22" data-name="Tracé 22" d="M70.746,89.844V83.17h1.782V99.8H70.746V97.9a4.87,4.87,0,0,1-4.254,2.089c-3.469,0-5.747-2.731-5.747-6.128s2.278-6.128,5.747-6.128a4.889,4.889,0,0,1,4.254,2.113m.093,4.015c0-2.448-1.471-4.515-4.107-4.515a4.526,4.526,0,0,0,0,9.029c2.635,0,4.107-2.067,4.107-4.515" transform="translate(19.985 27.363)" fill="#8c8b8b"/>
        <path id="Tracé_23" data-name="Tracé 23" d="M72.875,83.383h2.332l-2.092,5.061H71.5Z" transform="translate(23.522 27.433)" fill="#8c8b8b"/>
        <path id="Tracé_24" data-name="Tracé 24" d="M84.209,96.231h1.948a5.425,5.425,0,0,1-5.417,3.61,5.87,5.87,0,0,1-6.01-6.128c0-3.4,2.257-6.128,5.89-6.128a5.778,5.778,0,0,1,5.894,6.128v.714H76.56a4.13,4.13,0,0,0,4.2,3.8,3.716,3.716,0,0,0,3.446-2m-7.628-3.469H84.66a4.071,4.071,0,0,0-8.079,0m3.8-9.146h2.541l-2.541,2.495H78.936Z" transform="translate(24.586 27.509)" fill="#8c8b8b"/>
        <path id="Tracé_25" data-name="Tracé 25" d="M86.71,99.675V89.364H84.289V87.8H86.71V83.543h1.784V87.8h2.732v1.567H88.494v10.31Z" transform="translate(27.73 27.486)" fill="#8c8b8b"/>
        <path id="Tracé_26" data-name="Tracé 26" d="M99.592,98.621V96.769a4.637,4.637,0,0,1-3.942,2.043c-2.447,0-4.752-1.782-4.752-5.155V86.744h1.784V93.61A3.292,3.292,0,0,0,96,97.2a3.516,3.516,0,0,0,3.59-3.611V86.744h1.784V98.621Z" transform="translate(29.905 28.539)" fill="#8c8b8b"/>
        <path id="Tracé_27" data-name="Tracé 27" d="M110.565,89.844V83.17h1.778V99.8h-1.778V97.9a4.88,4.88,0,0,1-4.254,2.089c-3.469,0-5.752-2.731-5.752-6.128s2.283-6.128,5.752-6.128a4.9,4.9,0,0,1,4.254,2.113m.094,4.015c0-2.448-1.473-4.515-4.112-4.515a4.526,4.526,0,0,0,0,9.029c2.639,0,4.112-2.067,4.112-4.515" transform="translate(33.083 27.363)" fill="#8c8b8b"/>
        <path id="Tracé_28" data-name="Tracé 28" d="M120.686,95.249h1.948a5.425,5.425,0,0,1-5.417,3.61,5.87,5.87,0,0,1-6.01-6.128c0-3.4,2.255-6.129,5.889-6.129s5.894,2.731,5.894,6.129v.712h-9.955a4.13,4.13,0,0,0,4.2,3.8,3.717,3.717,0,0,0,3.446-1.995m-7.628-3.469h8.079a4.071,4.071,0,0,0-8.079,0" transform="translate(36.587 28.492)" fill="#8c8b8b"/>
        <path id="Tracé_29" data-name="Tracé 29" d="M130.722,89.975h-1.8c-.144-1.021-.905-1.853-2.9-1.853-1.855,0-2.831.546-2.831,1.71,0,2.851,7.914,1,7.914,5.463,0,2.3-1.9,3.562-4.847,3.562-3.3,0-5.038-1.827-5.154-3.918h1.85c.121,1.209,1.021,2.4,3.326,2.4.975,0,3.041-.26,3.041-1.877,0-2.969-7.91-1.115-7.91-5.463,0-2.138,1.592-3.4,4.655-3.4,3.134,0,4.444,1.639,4.654,3.373" transform="translate(39.843 28.492)" fill="#8c8b8b"/>
        <path id="Tracé_30" data-name="Tracé 30" d="M143.63,89.844V83.17h1.778V99.8H143.63V97.9a4.881,4.881,0,0,1-4.254,2.089c-3.469,0-5.752-2.731-5.752-6.128s2.283-6.128,5.752-6.128a4.9,4.9,0,0,1,4.254,2.113m.093,4.015c0-2.448-1.471-4.515-4.111-4.515a4.526,4.526,0,0,0,0,9.029c2.639,0,4.111-2.067,4.111-4.515" transform="translate(43.961 27.363)" fill="#8c8b8b"/>
        <path id="Tracé_31" data-name="Tracé 31" d="M153.434,98.621V96.769a4.639,4.639,0,0,1-3.946,2.043c-2.448,0-4.752-1.782-4.752-5.155V86.744h1.784V93.61a3.292,3.292,0,0,0,3.325,3.587,3.519,3.519,0,0,0,3.59-3.611V86.744h1.78V98.621Z" transform="translate(47.617 28.539)" fill="#8c8b8b"/>
        <path id="Tracé_32" data-name="Tracé 32" d="M160.559,86.791v1.853A4.637,4.637,0,0,1,164.5,86.6c2.447,0,4.752,1.782,4.752,5.155v6.912h-1.784V91.8a3.293,3.293,0,0,0-3.326-3.587,3.515,3.515,0,0,0-3.584,3.611v6.842h-1.784V86.791Z" transform="translate(52.236 28.492)" fill="#8c8b8b"/>
        <path id="Tracé_33" data-name="Tracé 33" d="M177.423,98.621V96.769a4.639,4.639,0,0,1-3.946,2.043c-2.443,0-4.748-1.782-4.748-5.155V86.744h1.78V93.61a3.292,3.292,0,0,0,3.325,3.587,3.519,3.519,0,0,0,3.59-3.611V86.744h1.78V98.621Z" transform="translate(55.511 28.539)" fill="#8c8b8b"/>
        <path id="Tracé_34" data-name="Tracé 34" d="M188.664,98.668H186.88V91.541a3.036,3.036,0,0,0-2.946-3.325,3.132,3.132,0,0,0-3.207,3.35v7.1h-1.782V86.791h1.782V88.6a4.007,4.007,0,0,1,3.612-2,4.212,4.212,0,0,1,3.776,2.4,4.713,4.713,0,0,1,4.084-2.4,4.575,4.575,0,0,1,4.4,4.893v7.174h-1.778V91.541a3.037,3.037,0,0,0-2.948-3.325,3.131,3.131,0,0,0-3.206,3.35Z" transform="translate(58.872 28.492)" fill="#8c8b8b"/>
        <path id="Tracé_35" data-name="Tracé 35" d="M203.391,96.231h1.948a5.425,5.425,0,0,1-5.417,3.61,5.87,5.87,0,0,1-6.01-6.128c0-3.4,2.257-6.128,5.894-6.128s5.89,2.731,5.89,6.128v.714h-9.955a4.132,4.132,0,0,0,4.209,3.8,3.714,3.714,0,0,0,3.441-2m-7.623-3.469h8.074a4.068,4.068,0,0,0-8.074,0m3.8-9.146h2.541l-2.541,2.495h-1.449Z" transform="translate(63.796 27.509)" fill="#8c8b8b"/>
        <path id="Tracé_36" data-name="Tracé 36" d="M210.707,86.6v1.781h-.214c-2.662,0-4.275,2.445-4.275,5.061v5.226h-1.784V86.792h1.784v2.922a4.514,4.514,0,0,1,4.368-3.113Z" transform="translate(67.257 28.492)" fill="#8c8b8b"/>
        <path id="Tracé_37" data-name="Tracé 37" d="M212.49,85.82h-1.926V83.49h1.926Zm-1.855,2h1.784V99.693h-1.784Z" transform="translate(69.274 27.468)" fill="#8c8b8b"/>
        <path id="Tracé_38" data-name="Tracé 38" d="M213.74,92.73c0-3.4,2.283-6.128,5.752-6.128a4.865,4.865,0,0,1,4.249,2.089v-1.9h1.783v16.582h-1.783V96.745a4.884,4.884,0,0,1-4.249,2.113c-3.469,0-5.752-2.731-5.752-6.128m1.784,0a4.2,4.2,0,0,0,4.2,4.515c2.634,0,4.111-2.067,4.111-4.515s-1.477-4.515-4.111-4.515a4.2,4.2,0,0,0-4.2,4.515" transform="translate(70.319 28.492)" fill="#8c8b8b"/>
        <path id="Tracé_39" data-name="Tracé 39" d="M233.549,98.621V96.769a4.639,4.639,0,0,1-3.946,2.043c-2.443,0-4.749-1.782-4.749-5.155V86.744h1.78V93.61A3.292,3.292,0,0,0,229.96,97.2a3.519,3.519,0,0,0,3.59-3.611V86.744h1.78V98.621Z" transform="translate(73.976 28.539)" fill="#8c8b8b"/>
        <path id="Tracé_40" data-name="Tracé 40" d="M244,95.249h1.948a5.422,5.422,0,0,1-5.417,3.61,5.871,5.871,0,0,1-6.011-6.128c0-3.4,2.257-6.129,5.894-6.129s5.89,2.731,5.89,6.129v.712h-9.955a4.13,4.13,0,0,0,4.2,3.8A3.718,3.718,0,0,0,244,95.249m-7.624-3.469h8.075a4.069,4.069,0,0,0-8.075,0" transform="translate(77.154 28.492)" fill="#8c8b8b"/>
        <path id="Tracé_41" data-name="Tracé 41" d="M96.69,17.791l-.546,5.141h10.942l.546-5.141h2.958l-.583,5.141h5.178l-.311,2.958H109.7l-1.17,10.942h5.141l-.311,2.96h-5.178l-.546,5.141h-2.96l.585-5.141H94.315l-.546,5.141h-2.96l.546-5.141H86.215l.311-2.96h5.141L92.873,25.89H87.733l.311-2.958h5.141l.585-5.141Zm-2.064,19.04h10.942l1.168-10.942h-10.9Z" transform="translate(28.364 5.854)" fill="#e75138"/>
        <path id="Tracé_42" data-name="Tracé 42" d="M104.314,64.288a29.086,29.086,0,1,1,0-58.173H133.4V35.2a29.118,29.118,0,0,1-29.086,29.086m0-54.841A25.755,25.755,0,1,0,130.069,35.2V9.447Z" transform="translate(24.749 2.012)" fill="#e75138"/>
        <path id="Tracé_43" data-name="Tracé 43" d="M136.644,22.009H140.4v4.028h-3.757Zm0,7.63H140.4v4.028h-3.757Z" transform="translate(44.955 7.241)" fill="#0099d1"/>
        <path id="Tracé_44" data-name="Tracé 44" d="M143.058,22.009h3.757v4.028h-3.757Zm0,7.63h3.757v4.028h-3.757Z" transform="translate(47.065 7.241)" fill="#0099d1"/>
        <path id="Tracé_45" data-name="Tracé 45" d="M149.582,31.859h3.539V21.815l-3.632.75V19.837l3.611-.75h3.81V31.859h3.539v2.768H149.582Z" transform="translate(49.181 6.28)" fill="#0099d1"/>
        <path id="Tracé_46" data-name="Tracé 46" d="M154.7,66.276a30.013,30.013,0,0,1-7.41-.969l-1.871-.482.02-.06a29.582,29.582,0,0,1-19.506-21.058,4.278,4.278,0,0,1-.258-1,29.863,29.863,0,0,1-.5-3.544c-.308-2.748-.541-6.257-.68-10.377l-.02-.5c-.082-2.7-.113-5.049-.12-6.58l0-1.818.02-1.69c.007-1.361.016-2.748.04-4.2l.016-1.1L154.7,0l30.273,12.885.017,1.1c.033,2.049.047,4,.053,5.9h-.007c.02.371.016.893.009,1.676l-.02,2.1c-.02,1.959-.062,3.857-.14,5.656-.136,3.8-.357,7.115-.657,9.836a28.624,28.624,0,0,1-.521,3.62,6.138,6.138,0,0,1-.324,1.2A29.451,29.451,0,0,1,154.7,66.276m-6.18-4.157a26.85,26.85,0,0,0,6.171.76,26.186,26.186,0,0,0,25.482-19.988,4.716,4.716,0,0,0,.206-.788,25.506,25.506,0,0,0,.468-3.26l0-.048c.291-2.641.506-5.874.639-9.617.077-1.776.12-3.637.14-5.559l.02-3.711c-.007-1.552-.02-3.128-.04-4.763L154.7,3.692,127.792,15.145c-.02,1.635-.023,3.192-.029,4.745l-.011,1.692c.007,1.615.037,3.931.12,6.592l.027.679-.007-.186c.136,4.033.359,7.452.663,10.16a26.089,26.089,0,0,0,.452,3.211,4.343,4.343,0,0,0,.14.6A26.359,26.359,0,0,0,148,61.979Z" transform="translate(40.911 0)" fill="#0099d1"/>
      </g>
    </g>
  </g>
</svg>
