<svg id="search" xmlns="http://www.w3.org/2000/svg" xmlns:xlink="http://www.w3.org/1999/xlink" width="18.664" height="18.667" viewBox="0 0 18.664 18.667">
  <defs>
    <clipPath id="clip-path">
      <rect id="Rectangle_57" data-name="Rectangle 57" width="18.664" height="18.667" fill="#4f6682"/>
    </clipPath>
  </defs>
  <g id="Groupe_18" data-name="Groupe 18" clip-path="url(#clip-path)">
    <path id="Tracé_59" data-name="Tracé 59" d="M8.75,0c.323.047.649.081.969.143a8.085,8.085,0,0,1,5.347,3.543,7.948,7.948,0,0,1,1.365,4.879,8.065,8.065,0,0,1-1.665,4.621c-.069.092-.141.182-.218.283.047.05.09.1.135.143q1.843,1.844,3.687,3.686a.787.787,0,0,1,.263.82.751.751,0,0,1-1.172.4,1.841,1.841,0,0,1-.2-.184Q15.44,16.517,13.624,14.7c-.047-.047-.086-.1-.131-.156-.27.193-.514.381-.771.55a8.142,8.142,0,0,1-4.85,1.345A8.253,8.253,0,0,1,.156,9.812C.089,9.461.051,9.1,0,8.751V7.693a1.015,1.015,0,0,0,.031-.141,7.829,7.829,0,0,1,1.124-3.52A8.112,8.112,0,0,1,6.724.143c.32-.063.645-.1.968-.143H8.75M8.243,1.523a6.7,6.7,0,1,0,6.674,6.726A6.7,6.7,0,0,0,8.243,1.523" transform="translate(0 0)" fill="#4f6682"/>
  </g>
</svg>
